<svg xmlns="http://www.w3.org/2000/svg" width="346.81" height="35" viewBox="0 0 346.81 35"><rect class="svg__rect" x="0" y="0" width="131.39" height="35" fill="#000000"/><rect class="svg__rect" x="129.39" y="0" width="217.42000000000002" height="35" fill="#3AC1D0"/><path class="svg__text" d="M16.67 22L14.22 22L14.22 13.47L16.74 13.47Q17.87 13.47 18.74 13.97Q19.62 14.48 20.10 15.40Q20.58 16.33 20.58 17.52L20.58 17.52L20.58 17.95Q20.58 19.16 20.10 20.08Q19.61 21.00 18.72 21.50Q17.83 22 16.67 22L16.67 22ZM15.70 14.66L15.70 20.82L16.67 20.82Q17.83 20.82 18.46 20.09Q19.08 19.36 19.09 17.99L19.09 17.99L19.09 17.52Q19.09 16.13 18.49 15.40Q17.89 14.66 16.74 14.66L16.74 14.66L15.70 14.66ZM30.62 22L25.05 22L25.05 13.47L30.58 13.47L30.58 14.66L26.53 14.66L26.53 17.02L30.03 17.02L30.03 18.19L26.53 18.19L26.53 20.82L30.62 20.82L30.62 22ZM34.39 19.42L34.39 19.42L35.87 19.42Q35.87 20.15 36.35 20.55Q36.83 20.95 37.73 20.95L37.73 20.95Q38.50 20.95 38.89 20.63Q39.28 20.32 39.28 19.80L39.28 19.80Q39.28 19.24 38.88 18.94Q38.49 18.63 37.46 18.32Q36.42 18.01 35.81 17.63L35.81 17.63Q34.65 16.90 34.65 15.72L34.65 15.72Q34.65 14.69 35.49 14.02Q36.33 13.35 37.67 13.35L37.67 13.35Q38.56 13.35 39.26 13.68Q39.96 14.01 40.36 14.61Q40.75 15.22 40.75 15.96L40.75 15.96L39.28 15.96Q39.28 15.29 38.86 14.91Q38.44 14.54 37.66 14.54L37.66 14.54Q36.93 14.54 36.53 14.85Q36.13 15.16 36.13 15.71L36.13 15.71Q36.13 16.18 36.56 16.50Q37.00 16.81 37.99 17.10Q38.99 17.40 39.59 17.78Q40.20 18.16 40.48 18.65Q40.76 19.13 40.76 19.79L40.76 19.79Q40.76 20.86 39.94 21.49Q39.13 22.12 37.73 22.12L37.73 22.12Q36.80 22.12 36.02 21.77Q35.25 21.43 34.82 20.83Q34.39 20.22 34.39 19.42ZM46.61 22L45.14 22L45.14 13.47L46.61 13.47L46.61 22ZM51.18 18.13L51.18 18.13L51.18 17.46Q51.18 15.53 52.10 14.44Q53.03 13.35 54.69 13.35L54.69 13.35Q56.11 13.35 56.95 14.05Q57.79 14.76 57.96 16.08L57.96 16.08L56.50 16.08Q56.26 14.54 54.72 14.54L54.72 14.54Q53.72 14.54 53.20 15.26Q52.68 15.98 52.67 17.37L52.67 17.37L52.67 18.02Q52.67 19.40 53.25 20.17Q53.83 20.93 54.87 20.93L54.87 20.93Q56.01 20.93 56.49 20.42L56.49 20.42L56.49 18.75L54.73 18.75L54.73 17.62L57.96 17.62L57.96 20.89Q57.50 21.50 56.68 21.81Q55.86 22.12 54.82 22.12L54.82 22.12Q53.74 22.12 52.92 21.63Q52.09 21.14 51.64 20.24Q51.20 19.33 51.18 18.13ZM64.06 22L62.58 22L62.58 13.47L64.06 13.47L67.88 19.54L67.88 13.47L69.35 13.47L69.35 22L67.87 22L64.06 15.95L64.06 22ZM79.67 22L74.09 22L74.09 13.47L79.63 13.47L79.63 14.66L75.57 14.66L75.57 17.02L79.07 17.02L79.07 18.19L75.57 18.19L75.57 20.82L79.67 20.82L79.67 22ZM86.32 22L83.86 22L83.86 13.47L86.38 13.47Q87.51 13.47 88.39 13.97Q89.26 14.48 89.74 15.40Q90.22 16.33 90.22 17.52L90.22 17.52L90.22 17.95Q90.22 19.16 89.74 20.08Q89.26 21.00 88.36 21.50Q87.47 22 86.32 22L86.32 22ZM85.34 14.66L85.34 20.82L86.31 20.82Q87.48 20.82 88.10 20.09Q88.72 19.36 88.74 17.99L88.74 17.99L88.74 17.52Q88.74 16.13 88.13 15.40Q87.53 14.66 86.38 14.66L86.38 14.66L85.34 14.66ZM103.78 22L100.67 22L100.67 13.47L103.59 13.47Q105.04 13.47 105.79 14.05Q106.55 14.63 106.55 15.78L106.55 15.78Q106.55 16.36 106.23 16.83Q105.92 17.30 105.31 17.56L105.31 17.56Q106.00 17.75 106.38 18.26Q106.75 18.78 106.75 19.51L106.75 19.51Q106.75 20.71 105.98 21.36Q105.21 22 103.78 22L103.78 22ZM102.15 18.15L102.15 20.82L103.80 20.82Q104.49 20.82 104.89 20.47Q105.28 20.13 105.28 19.51L105.28 19.51Q105.28 18.18 103.92 18.15L103.92 18.15L102.15 18.15ZM102.15 14.66L102.15 17.06L103.60 17.06Q104.29 17.06 104.68 16.75Q105.07 16.43 105.07 15.86L105.07 15.86Q105.07 15.23 104.71 14.95Q104.35 14.66 103.59 14.66L103.59 14.66L102.15 14.66ZM113.26 18.86L110.40 13.47L112.05 13.47L114.01 17.51L115.97 13.47L117.61 13.47L114.75 18.86L114.75 22L113.26 22L113.26 18.86Z" fill="#FFFFFF"/><path class="svg__text" d="M142.99 21.24L142.99 21.24L143.77 19.49Q144.33 19.86 145.08 20.09Q145.82 20.32 146.54 20.32L146.54 20.32Q147.91 20.32 147.91 19.64L147.91 19.64Q147.91 19.28 147.52 19.11Q147.13 18.93 146.27 18.74L146.27 18.74Q145.32 18.53 144.68 18.30Q144.05 18.06 143.59 17.55Q143.14 17.03 143.14 16.16L143.14 16.16Q143.14 15.39 143.56 14.77Q143.98 14.15 144.81 13.79Q145.65 13.43 146.85 13.43L146.85 13.43Q147.68 13.43 148.49 13.62Q149.29 13.80 149.91 14.17L149.91 14.17L149.17 15.93Q147.97 15.28 146.84 15.28L146.84 15.28Q146.13 15.28 145.81 15.49Q145.49 15.70 145.49 16.04L145.49 16.04Q145.49 16.37 145.87 16.54Q146.26 16.71 147.11 16.89L147.11 16.89Q148.07 17.10 148.70 17.33Q149.33 17.56 149.79 18.07Q150.25 18.58 150.25 19.46L150.25 19.46Q150.25 20.21 149.83 20.83Q149.41 21.44 148.57 21.80Q147.73 22.17 146.53 22.17L146.53 22.17Q145.51 22.17 144.55 21.92Q143.59 21.67 142.99 21.24ZM157.21 22L154.83 22L154.83 13.60L157.21 13.60L157.21 22ZM164.76 22L162.38 22L162.38 13.60L166.22 13.60Q167.37 13.60 168.20 13.98Q169.04 14.35 169.50 15.06Q169.96 15.76 169.96 16.71L169.96 16.71Q169.96 17.62 169.53 18.30Q169.10 18.98 168.31 19.36L168.31 19.36L170.12 22L167.58 22L166.05 19.77L164.76 19.77L164.76 22ZM164.76 15.47L164.76 17.93L166.08 17.93Q166.81 17.93 167.18 17.61Q167.55 17.29 167.55 16.71L167.55 16.71Q167.55 16.12 167.18 15.79Q166.81 15.47 166.08 15.47L166.08 15.47L164.76 15.47ZM174.16 21.24L174.16 21.24L174.94 19.49Q175.50 19.86 176.24 20.09Q176.99 20.32 177.71 20.32L177.71 20.32Q179.07 20.32 179.08 19.64L179.08 19.64Q179.08 19.28 178.69 19.11Q178.30 18.93 177.43 18.74L177.43 18.74Q176.48 18.53 175.85 18.30Q175.21 18.06 174.76 17.55Q174.30 17.03 174.30 16.16L174.30 16.16Q174.30 15.39 174.72 14.77Q175.14 14.15 175.98 13.79Q176.81 13.43 178.02 13.43L178.02 13.43Q178.85 13.43 179.65 13.62Q180.46 13.80 181.07 14.17L181.07 14.17L180.34 15.93Q179.14 15.28 178.01 15.28L178.01 15.28Q177.30 15.28 176.98 15.49Q176.65 15.70 176.65 16.04L176.65 16.04Q176.65 16.37 177.04 16.54Q177.42 16.71 178.27 16.89L178.27 16.89Q179.23 17.10 179.86 17.33Q180.49 17.56 180.95 18.07Q181.42 18.58 181.42 19.46L181.42 19.46Q181.42 20.21 181.00 20.83Q180.58 21.44 179.74 21.80Q178.90 22.17 177.70 22.17L177.70 22.17Q176.68 22.17 175.72 21.92Q174.76 21.67 174.16 21.24ZM185.92 18.26L185.92 18.26L185.92 13.60L188.30 13.60L188.30 18.19Q188.30 20.20 189.90 20.20L189.90 20.20Q191.48 20.20 191.48 18.19L191.48 18.19L191.48 13.60L193.82 13.60L193.82 18.26Q193.82 20.13 192.78 21.15Q191.74 22.17 189.87 22.17L189.87 22.17Q188.00 22.17 186.96 21.15Q185.92 20.13 185.92 18.26ZM201.29 22L198.91 22L198.91 13.60L202.75 13.60Q203.89 13.60 204.73 13.98Q205.57 14.35 206.03 15.06Q206.48 15.76 206.48 16.71L206.48 16.71Q206.48 17.62 206.06 18.30Q205.63 18.98 204.84 19.36L204.84 19.36L206.65 22L204.11 22L202.58 19.77L201.29 19.77L201.29 22ZM201.29 15.47L201.29 17.93L202.61 17.93Q203.34 17.93 203.71 17.61Q204.08 17.29 204.08 16.71L204.08 16.71Q204.08 16.12 203.71 15.79Q203.34 15.47 202.61 15.47L202.61 15.47L201.29 15.47ZM219.66 22L217.24 22L220.95 13.60L223.29 13.60L227.00 22L224.54 22L223.87 20.37L220.32 20.37L219.66 22ZM222.10 15.93L221.02 18.61L223.18 18.61L222.10 15.93ZM233.51 22L231.16 22L231.16 13.60L233.51 13.60L233.51 17.09L236.77 13.60L239.38 13.60L235.95 17.32L239.56 22L236.80 22L234.40 18.95L233.51 19.90L233.51 22ZM245.09 22L242.66 22L246.37 13.60L248.71 13.60L252.43 22L249.96 22L249.30 20.37L245.75 20.37L245.09 22ZM247.52 15.93L246.44 18.61L248.60 18.61L247.52 15.93ZM267.53 22L263.55 22L263.55 13.60L267.53 13.60Q268.91 13.60 269.98 14.12Q271.04 14.63 271.63 15.58Q272.22 16.53 272.22 17.80L272.22 17.80Q272.22 19.07 271.63 20.02Q271.04 20.97 269.98 21.48Q268.91 22 267.53 22L267.53 22ZM265.93 15.50L265.93 20.10L267.43 20.10Q268.51 20.10 269.16 19.49Q269.82 18.88 269.82 17.80L269.82 17.80Q269.82 16.72 269.16 16.11Q268.51 15.50 267.43 15.50L267.43 15.50L265.93 15.50ZM283.69 22L276.95 22L276.95 13.60L283.54 13.60L283.54 15.44L279.30 15.44L279.30 16.85L283.04 16.85L283.04 18.63L279.30 18.63L279.30 20.17L283.69 20.17L283.69 22ZM292.42 20.39L287.98 20.39L287.98 18.84L291.75 13.60L294.21 13.60L290.79 18.51L292.49 18.51L292.49 17.08L294.74 17.08L294.74 18.51L295.99 18.51L295.99 20.39L294.74 20.39L294.74 22L292.42 22L292.42 20.39ZM302.71 22L300.38 22L300.38 13.60L302.34 13.60L306.05 18.07L306.05 13.60L308.37 13.60L308.37 22L306.42 22L302.71 17.52L302.71 22ZM315.87 22L313.53 22L313.53 13.60L315.49 13.60L319.20 18.07L319.20 13.60L321.53 13.60L321.53 22L319.58 22L315.87 17.52L315.87 22ZM328.82 18.95L325.61 13.60L328.12 13.60L330.11 16.94L332.10 13.60L334.41 13.60L331.19 18.99L331.19 22L328.82 22L328.82 18.95Z" fill="#FFFFFF" x="142.39"/></svg>